<?xml version="1.0" encoding="UTF-8" standalone="no"?>
<!DOCTYPE svg PUBLIC "-//W3C//DTD SVG 1.1//EN" "http://www.w3.org/Graphics/SVG/1.1/DTD/svg11.dtd">
<svg width="100%" height="100%" viewBox="0 0 36 36" version="1.1" xmlns="http://www.w3.org/2000/svg" xmlns:xlink="http://www.w3.org/1999/xlink" xml:space="preserve" xmlns:serif="http://www.serif.com/" style="fill-rule:evenodd;clip-rule:evenodd;stroke-linejoin:round;stroke-miterlimit:2;">
    <g transform="matrix(1.125,0,0,1.125,-2.25,-4)">
        <path d="M16,26.889C16,26.398 15.602,26 15.111,26L10.889,26C10.398,26 10,26.398 10,26.889L10,31.111C10,31.602 10.398,32 10.889,32L15.111,32C15.602,32 16,31.602 16,31.111L16,26.889Z" style="fill:rgb(234,158,68);"/>
    </g>
    <g transform="matrix(1.125,0,0,1.125,-2.25,-4)">
        <path d="M15,16L11,16C10.451,16 10,16.451 10,17L10,18.2L5.8,18.2L5.8,12L7,12C7.549,12 8,11.549 8,11L8,7C8,6.451 7.549,6 7,6L3,6C2.451,6 2,6.451 2,7L2,11C2,11.549 2.451,12 3,12L4.2,12L4.2,29.8L11,29.8C11.439,29.8 11.8,29.439 11.8,29C11.8,28.561 11.439,28.2 11,28.2L5.8,28.2L5.8,19.8L10,19.8L10,21C10,21.549 10.451,22 11,22L15,22C15.549,22 16,21.549 16,21L16,17C16,16.451 15.549,16 15,16Z" style="fill:rgb(234,158,68);fill-rule:nonzero;"/>
    </g>
    <g transform="matrix(1.125,0,0,1.125,-2.25,-4)">
        <path d="M33,8L10,8L10,10L33,10C33.549,10 34,9.549 34,9C34,8.451 33.549,8 33,8Z" style="fill:rgb(234,158,68);fill-rule:nonzero;"/>
    </g>
    <g transform="matrix(1.125,0,0,1.125,-2.25,-4)">
        <path d="M33,18L18,18L18,20L33,20C33.549,20 34,19.549 34,19C34,18.451 33.549,18 33,18Z" style="fill:rgb(234,158,68);fill-rule:nonzero;"/>
    </g>
    <g transform="matrix(1.125,0,0,1.125,-2.25,-4)">
        <path d="M33,28L18,28L18,30L33,30C33.549,30 34,29.549 34,29C34,28.451 33.549,28 33,28Z" style="fill:rgb(234,158,68);fill-rule:nonzero;"/>
    </g>
</svg>
